<svg height="512" viewBox="0 0 64 64" width="512" xmlns="http://www.w3.org/2000/svg"><g id="wrench-service-tool-hardware-shop"><path d="m4 15h56v46h-56z" fill="#00ddc2"/><path d="m24 29h32v28h-32z" fill="#57a4ff"/><path d="m60 4v3h-56v-3a1 1 0 0 1 1-1h54a1 1 0 0 1 1 1z" fill="#ffda44"/><path d="m3 7h58v8h-58z" fill="#ff7956"/><path d="m8 36h12v3h-12z" fill="#acabb1"/><path d="m8 33h12v3h-12z" fill="#e0e0e2"/><path d="m8 39h12v22h-12z" fill="#c6c5ca"/><path d="m52 16h-48v6a4 4 0 0 0 8 0 4 4 0 0 0 8 0 4 4 0 0 0 8 0 4 4 0 0 0 8 0 4 4 0 0 0 8 0 4 4 0 0 0 8 0 4 4 0 0 0 8 0v-6z" fill="#2d2d30"/><path d="m20 15v6a4 4 0 0 1 -8 0v-6z" fill="#ffda44"/><path d="m36 15v6a4 4 0 0 1 -8 0v-6z" fill="#ffda44"/><path d="m52 15v6a4 4 0 0 1 -8 0v-6z" fill="#ffda44"/><g fill="#ff9478"><path d="m60 15v6a4 4 0 0 1 -8 0v-6z"/><path d="m44 15v6a4 4 0 0 1 -8 0v-6z"/><path d="m28 15v6a4 4 0 0 1 -8 0v-6z"/><path d="m12 15v6a4 4 0 0 1 -8 0v-6z"/></g><path d="m33 29-9 8v5l14-13z" fill="#81bbff"/><path d="m44.882 29-20.882 19.094v6.906l28-26z" fill="#81bbff"/><rect fill="#ff9f85" height="3" rx="1.5" width="11" x="5" y="9"/><path d="m9 36h-1l2-3h1z" fill="#fff"/><path d="m12 36h-1l2-3h1z" fill="#fff"/><path d="m49.77 36.06-3.99 3.99-2.83-2.83 3.99-3.99a5.985 5.985 0 0 0 -8.37 6.95l-5.79 5.8a4 4 0 1 0 4.24 4.24l5.8-5.79a5.985 5.985 0 0 0 6.95-8.37zm-16.77 15.94a2 2 0 1 1 2-2 2 2 0 0 1 -2 2z" fill="#ff5023"/><path d="m10 47h2v4h-2z"/><path d="m61 16a1 1 0 0 0 1-1v-8a1 1 0 0 0 -1-1v-2a2.006 2.006 0 0 0 -2-2h-54a2.006 2.006 0 0 0 -2 2v2a1 1 0 0 0 -1 1v8a1 1 0 0 0 1 1v44h-1v2h60v-2h-1zm-56-12h54v2h-54zm14 56h-10v-20h10zm0-22h-10v-1h10zm0-3h-10v-1h10zm40 25h-38v-27a1 1 0 0 0 -1-1h-12a1 1 0 0 0 -1 1v27h-2v-35.03a4.924 4.924 0 0 0 3 1.03 4.994 4.994 0 0 0 4-2.03 4.956 4.956 0 0 0 8 0 4.956 4.956 0 0 0 8 0 4.956 4.956 0 0 0 8 0 4.956 4.956 0 0 0 8 0 4.956 4.956 0 0 0 8 0 4.994 4.994 0 0 0 4 2.03 4.924 4.924 0 0 0 3-1.03zm-54-39v-5h6v5a3 3 0 0 1 -6 0zm8 0v-5h6v5a3 3 0 0 1 -6 0zm8 0v-5h6v5a3 3 0 0 1 -6 0zm8 0v-5h6v5a3 3 0 0 1 -6 0zm8 0v-5h6v5a3 3 0 0 1 -6 0zm8 0v-5h6v5a3 3 0 0 1 -6 0zm14 0a3 3 0 0 1 -6 0v-5h6zm1-7h-56v-6h56z"/><path d="m56 28h-32a1 1 0 0 0 -1 1v28a1 1 0 0 0 1 1h32a1 1 0 0 0 1-1v-28a1 1 0 0 0 -1-1zm-1 28h-30v-26h30z"/><path d="m33.05 54.947a4.957 4.957 0 0 0 4.93-4.27l5.156-5.156a6.988 6.988 0 0 0 7.537-9.9 1 1 0 0 0 -.821-.558 1.013 1.013 0 0 0 -.8.3l-3.272 3.273-1.416-1.416 3.261-3.26a1 1 0 0 0 -.245-1.634 6.989 6.989 0 0 0 -9.9 7.538l-5.156 5.156a4.99 4.99 0 0 0 .726 9.927zm-2.121-7.119a2.988 2.988 0 0 1 1.921-.854 1 1 0 0 0 .639-.291l5.791-5.791a1 1 0 0 0 .26-.963 4.995 4.995 0 0 1 4.822-6.294 4.949 4.949 0 0 1 .708.051l-2.827 2.827a1 1 0 0 0 0 1.414l2.83 2.83a1 1 0 0 0 1.414 0l2.827-2.827a4.994 4.994 0 0 1 -6.242 5.53 1 1 0 0 0 -.964.26l-5.791 5.792a.994.994 0 0 0 -.29.637 2.993 2.993 0 1 1 -5.1-2.321z"/><circle cx="33" cy="50" r="2"/></g></svg>